<svg width="24" height="25" viewBox="0 0 24 25" fill="none" xmlns="http://www.w3.org/2000/svg">
<path fill-rule="evenodd" clip-rule="evenodd" d="M6.96897 2.969C7.03864 2.89915 7.1214 2.84374 7.21252 2.80593C7.30363 2.76812 7.40132 2.74866 7.49997 2.74866C7.59862 2.74866 7.6963 2.76812 7.78742 2.80593C7.87854 2.84374 7.9613 2.89915 8.03097 2.969L17.031 11.969C17.1008 12.0387 17.1562 12.1214 17.194 12.2125C17.2318 12.3037 17.2513 12.4013 17.2513 12.5C17.2513 12.5986 17.2318 12.6963 17.194 12.7874C17.1562 12.8786 17.1008 12.9613 17.031 13.031L8.03097 22.031C7.89014 22.1718 7.69913 22.2509 7.49997 22.2509C7.3008 22.2509 7.1098 22.1718 6.96897 22.031C6.82814 21.8902 6.74902 21.6992 6.74902 21.5C6.74902 21.3008 6.82814 21.1098 6.96897 20.969L15.4395 12.5L6.96897 4.031C6.89912 3.96133 6.84371 3.87857 6.8059 3.78745C6.76809 3.69633 6.74863 3.59865 6.74863 3.5C6.74863 3.40135 6.76809 3.30367 6.8059 3.21255C6.84371 3.12143 6.89912 3.03867 6.96897 2.969Z" fill="black"/>
</svg>
