<svg width="24" height="25" viewBox="0 0 24 25" fill="none" xmlns="http://www.w3.org/2000/svg">
<path fill-rule="evenodd" clip-rule="evenodd" d="M13.8361 2.82936C14.0135 2.91848 14.1483 3.07432 14.2111 3.26272C14.2738 3.45111 14.2592 3.65668 14.1706 3.83436L9.84006 12.4999L14.1721 21.1639C14.2171 21.252 14.2442 21.3482 14.2519 21.4469C14.2596 21.5456 14.2477 21.6448 14.2168 21.7388C14.1859 21.8329 14.1368 21.9199 14.0721 21.9948C14.0075 22.0698 13.9287 22.1312 13.8402 22.1756C13.7517 22.2199 13.6553 22.2463 13.5566 22.2532C13.4578 22.2601 13.3587 22.2474 13.2649 22.2159C13.1711 22.1843 13.0844 22.1344 13.01 22.0692C12.9355 22.004 12.8747 21.9247 12.8311 21.8359L8.33106 12.8359C8.2788 12.7316 8.25159 12.6165 8.25159 12.4999C8.25159 12.3832 8.2788 12.2682 8.33106 12.1639L12.8311 3.16386C12.9202 2.98643 13.076 2.85157 13.2644 2.78887C13.4528 2.72617 13.6584 2.74073 13.8361 2.82936Z" fill="black"/>
</svg>
