<svg width="54" height="54" viewBox="0 0 54 54" fill="none" xmlns="http://www.w3.org/2000/svg">
<path d="M27 50.625C20.7343 50.625 14.7251 48.1359 10.2946 43.7054C5.86406 39.2748 3.375 33.2657 3.375 27C3.375 20.7343 5.86406 14.7251 10.2946 10.2946C14.7251 5.86406 20.7343 3.375 27 3.375C33.2657 3.375 39.2748 5.86406 43.7054 10.2946C48.1359 14.7251 50.625 20.7343 50.625 27C50.625 33.2657 48.1359 39.2748 43.7054 43.7054C39.2748 48.1359 33.2657 50.625 27 50.625ZM27 54C34.1608 54 41.0284 51.1554 46.0919 46.0919C51.1554 41.0284 54 34.1608 54 27C54 19.8392 51.1554 12.9716 46.0919 7.90812C41.0284 2.84464 34.1608 0 27 0C19.8392 0 12.9716 2.84464 7.90812 7.90812C2.84464 12.9716 0 19.8392 0 27C0 34.1608 2.84464 41.0284 7.90812 46.0919C12.9716 51.1554 19.8392 54 27 54Z" fill="white"/>
<path d="M21.1646 17.0605C21.4406 16.9184 21.7505 16.8552 22.0602 16.8778C22.3698 16.9004 22.6672 17.008 22.9196 17.1888L34.7321 25.6263C34.9509 25.7824 35.1292 25.9885 35.2522 26.2274C35.3752 26.4663 35.4394 26.7312 35.4394 26.9999C35.4394 27.2686 35.3752 27.5335 35.2522 27.7724C35.1292 28.0113 34.9509 28.2174 34.7321 28.3735L22.9196 36.811C22.6673 36.9916 22.37 37.0991 22.0606 37.1218C21.7511 37.1444 21.4413 37.0813 21.1654 36.9393C20.8895 36.7973 20.6581 36.582 20.4966 36.317C20.3351 36.0521 20.2497 35.7477 20.25 35.4374V18.5624C20.2497 18.2522 20.3349 17.9479 20.4962 17.6829C20.6576 17.4179 20.8889 17.2026 21.1646 17.0605Z" fill="#F3F3F3"/>
</svg>
