<svg width="18" height="18" viewBox="0 0 18 18" fill="none" xmlns="http://www.w3.org/2000/svg">
<path d="M13.2803 9.21975C13.2107 9.15004 13.128 9.09474 13.037 9.057C12.946 9.01927 12.8485 8.99985 12.75 8.99985C12.6515 8.99985 12.554 9.01927 12.463 9.057C12.372 9.09474 12.2893 9.15004 12.2198 9.21975L11.0243 10.4152C10.47 10.2502 9.43576 9.87525 8.78026 9.21975C8.12476 8.56425 7.74976 7.53 7.58476 6.97575L8.78026 5.78025C8.84997 5.71066 8.90527 5.628 8.943 5.53702C8.98073 5.44603 9.00016 5.3485 9.00016 5.25C9.00016 5.1515 8.98073 5.05396 8.943 4.96298C8.90527 4.87199 8.84997 4.78934 8.78026 4.71975L5.78026 1.71975C5.71067 1.65004 5.62801 1.59474 5.53703 1.557C5.44604 1.51927 5.34851 1.49985 5.25001 1.49985C5.15151 1.49985 5.05397 1.51927 4.96299 1.557C4.872 1.59474 4.78935 1.65004 4.71976 1.71975L2.68576 3.75375C2.40076 4.03875 2.24026 4.43025 2.24626 4.83C2.26351 5.898 2.54626 9.6075 5.46976 12.531C8.39326 15.4545 12.1028 15.7365 13.1715 15.7545H13.1925C13.5885 15.7545 13.9628 15.5985 14.2463 15.315L16.2803 13.281C16.35 13.2114 16.4053 13.1288 16.443 13.0378C16.4807 12.9468 16.5002 12.8492 16.5002 12.7507C16.5002 12.6522 16.4807 12.5547 16.443 12.4637C16.4053 12.3727 16.35 12.2901 16.2803 12.2205L13.2803 9.21975ZM13.185 14.2537C12.249 14.238 9.04651 13.9867 6.53026 11.4697C4.00576 8.94525 3.76126 5.7315 3.74626 4.81425L5.25001 3.3105L7.18951 5.25L6.21976 6.21975C6.1316 6.30784 6.06679 6.4165 6.03117 6.53592C5.99555 6.65535 5.99026 6.78176 6.01576 6.90375C6.03376 6.99 6.47401 9.03525 7.71901 10.2802C8.96401 11.5252 11.0093 11.9655 11.0955 11.9835C11.2174 12.0097 11.344 12.0048 11.4635 11.9693C11.583 11.9338 11.6917 11.8688 11.7795 11.7802L12.75 10.8105L14.6895 12.75L13.185 14.2537V14.2537Z" fill="black"/>
</svg>
