<svg width="16" height="16" viewBox="0 0 16 16" fill="none" xmlns="http://www.w3.org/2000/svg">
<path d="M0.5 9.90027C0.632608 9.90027 0.759785 9.95295 0.853553 10.0467C0.947322 10.1405 1 10.2677 1 10.4003V12.9003C1 13.1655 1.10536 13.4198 1.29289 13.6074C1.48043 13.7949 1.73478 13.9003 2 13.9003H14C14.2652 13.9003 14.5196 13.7949 14.7071 13.6074C14.8946 13.4198 15 13.1655 15 12.9003V10.4003C15 10.2677 15.0527 10.1405 15.1464 10.0467C15.2402 9.95295 15.3674 9.90027 15.5 9.90027C15.6326 9.90027 15.7598 9.95295 15.8536 10.0467C15.9473 10.1405 16 10.2677 16 10.4003V12.9003C16 13.4307 15.7893 13.9394 15.4142 14.3145C15.0391 14.6896 14.5304 14.9003 14 14.9003H2C1.46957 14.9003 0.960859 14.6896 0.585786 14.3145C0.210714 13.9394 0 13.4307 0 12.9003V10.4003C0 10.2677 0.0526784 10.1405 0.146447 10.0467C0.240215 9.95295 0.367392 9.90027 0.5 9.90027V9.90027Z" fill="#25855A"/>
<path d="M7.64599 11.8542C7.69244 11.9008 7.74761 11.9377 7.80836 11.963C7.8691 11.9882 7.93422 12.0011 7.99999 12.0011C8.06576 12.0011 8.13088 11.9882 8.19162 11.963C8.25237 11.9377 8.30755 11.9008 8.35399 11.8542L11.354 8.85424C11.4479 8.76036 11.5006 8.63302 11.5006 8.50024C11.5006 8.36747 11.4479 8.24013 11.354 8.14624C11.2601 8.05236 11.1328 7.99961 11 7.99961C10.8672 7.99961 10.7399 8.05236 10.646 8.14624L8.49999 10.2932V1.50024C8.49999 1.36764 8.44731 1.24046 8.35354 1.14669C8.25978 1.05292 8.1326 1.00024 7.99999 1.00024C7.86738 1.00024 7.74021 1.05292 7.64644 1.14669C7.55267 1.24046 7.49999 1.36764 7.49999 1.50024V10.2932L5.35399 8.14624C5.2601 8.05236 5.13277 7.99961 4.99999 7.99961C4.86722 7.99961 4.73988 8.05236 4.64599 8.14624C4.5521 8.24013 4.49936 8.36747 4.49936 8.50024C4.49936 8.63302 4.5521 8.76036 4.64599 8.85424L7.64599 11.8542V11.8542Z" fill="#25855A"/>
</svg>
