<svg width="382" height="169" viewBox="0 0 382 169" fill="none" xmlns="http://www.w3.org/2000/svg">
<path d="M56.1244 499.37C293.469 499.37 485.874 348.773 485.874 163.003C485.874 -22.7679 293.469 -173.365 56.1244 -173.365C-181.22 -173.365 -373.626 -22.7679 -373.626 163.003C-373.626 348.773 -181.22 499.37 56.1244 499.37Z" fill="#AA48FF" stroke="black" stroke-opacity="0.05" stroke-width="66.7"/>
<path d="M56.1244 480.683C280.283 480.683 461.999 338.453 461.999 163.003C461.999 -12.4473 280.283 -154.678 56.1244 -154.678C-168.034 -154.678 -349.751 -12.4473 -349.751 163.003C-349.751 338.453 -168.034 480.683 56.1244 480.683Z" fill="#A342F0" stroke="black" stroke-opacity="0.05" stroke-width="66.7"/>
<path d="M56.1244 461.996C267.097 461.996 438.124 328.132 438.124 163.003C438.124 -2.12671 267.097 -135.991 56.1244 -135.991C-154.848 -135.991 -325.876 -2.12671 -325.876 163.003C-325.876 328.132 -154.848 461.996 56.1244 461.996Z" fill="#9B3DE0" stroke="black" stroke-opacity="0.05" stroke-width="66.7"/>
<path d="M56.1244 443.309C253.911 443.309 414.249 317.812 414.249 163.003C414.249 8.19392 253.911 -117.303 56.1244 -117.303C-141.663 -117.303 -302.001 8.19392 -302.001 163.003C-302.001 317.812 -141.663 443.309 56.1244 443.309Z" fill="#9437D2" stroke="black" stroke-opacity="0.05" stroke-width="66.7"/>
<path d="M56.1244 424.622C240.726 424.622 390.374 307.491 390.374 163.003C390.374 18.5144 240.726 -98.6165 56.1244 -98.6165C-128.477 -98.6165 -278.126 18.5144 -278.126 163.003C-278.126 307.491 -128.477 424.622 56.1244 424.622Z" fill="#8C32C3" stroke="black" stroke-opacity="0.05" stroke-width="66.7"/>
<path d="M56.1244 405.935C227.54 405.935 366.499 297.17 366.499 163.003C366.499 28.8351 227.54 -79.9293 56.1244 -79.9293C-115.291 -79.9293 -254.251 28.8351 -254.251 163.003C-254.251 297.17 -115.291 405.935 56.1244 405.935Z" fill="#842DB5" stroke="black" stroke-opacity="0.05" stroke-width="66.7"/>
<path d="M56.1244 387.248C214.354 387.248 342.624 286.85 342.624 163.003C342.624 39.1557 214.354 -61.2422 56.1244 -61.2422C-102.105 -61.2422 -230.376 39.1557 -230.376 163.003C-230.376 286.85 -102.105 387.248 56.1244 387.248Z" fill="#7C29A7" stroke="black" stroke-opacity="0.05" stroke-width="66.7"/>
<path d="M56.1244 368.561C201.168 368.561 318.749 276.529 318.749 163.003C318.749 49.4762 201.168 -42.5552 56.1244 -42.5552C-88.9194 -42.5552 -206.501 49.4762 -206.501 163.003C-206.501 276.529 -88.9194 368.561 56.1244 368.561Z" fill="#742499" stroke="black" stroke-opacity="0.05" stroke-width="66.7"/>
<path d="M56.1244 349.874C187.982 349.874 294.874 266.209 294.874 163.003C294.874 59.7969 187.982 -23.868 56.1244 -23.868C-75.7336 -23.868 -182.626 59.7969 -182.626 163.003C-182.626 266.209 -75.7336 349.874 56.1244 349.874Z" fill="#6B208C" stroke="black" stroke-opacity="0.05" stroke-width="66.7"/>
<path d="M56.1244 331.186C174.797 331.186 270.999 255.888 270.999 163.003C270.999 70.1174 174.797 -5.18103 56.1244 -5.18103C-62.5478 -5.18103 -158.751 70.1174 -158.751 163.003C-158.751 255.888 -62.5478 331.186 56.1244 331.186Z" fill="#631C7F" stroke="black" stroke-opacity="0.05" stroke-width="66.7"/>
<path d="M56.1244 312.499C161.611 312.499 247.124 245.568 247.124 163.003C247.124 80.438 161.611 13.5061 56.1244 13.5061C-49.362 13.5061 -134.876 80.438 -134.876 163.003C-134.876 245.568 -49.362 312.499 56.1244 312.499Z" fill="#5B1872" stroke="black" stroke-opacity="0.05" stroke-width="66.7"/>
<path d="M56.1244 293.812C148.425 293.812 223.249 235.247 223.249 163.003C223.249 90.7586 148.425 32.1931 56.1244 32.1931C-36.1762 32.1931 -111.001 90.7586 -111.001 163.003C-111.001 235.247 -36.1762 293.812 56.1244 293.812Z" fill="#521466" stroke="black" stroke-opacity="0.05" stroke-width="66.7"/>
<path d="M56.1244 275.125C135.239 275.125 199.374 224.926 199.374 163.003C199.374 101.079 135.239 50.8804 56.1244 50.8804C-22.9904 50.8804 -87.1256 101.079 -87.1256 163.003C-87.1256 224.926 -22.9904 275.125 56.1244 275.125Z" fill="#4A115A" stroke="black" stroke-opacity="0.05" stroke-width="66.7"/>
<path d="M56.1244 256.438C122.053 256.438 175.499 214.606 175.499 163.003C175.499 111.4 122.053 69.5674 56.1244 69.5674C-9.8046 69.5674 -63.2506 111.4 -63.2506 163.003C-63.2506 214.606 -9.8046 256.438 56.1244 256.438Z" fill="#410E4E" stroke="black" stroke-opacity="0.05" stroke-width="66.7"/>
<path d="M56.1244 237.751C108.868 237.751 151.624 204.285 151.624 163.003C151.624 121.72 108.868 88.2544 56.1244 88.2544C3.3812 88.2544 -39.3756 121.72 -39.3756 163.003C-39.3756 204.285 3.3812 237.751 56.1244 237.751Z" fill="#390B43" stroke="black" stroke-opacity="0.05" stroke-width="66.7"/>
<path d="M56.1244 219.064C95.6818 219.064 127.749 193.964 127.749 163.003C127.749 132.041 95.6818 106.941 56.1244 106.941C16.567 106.941 -15.5006 132.041 -15.5006 163.003C-15.5006 193.964 16.567 219.064 56.1244 219.064Z" fill="#300838" stroke="black" stroke-opacity="0.05" stroke-width="66.7"/>
<path d="M56.1244 200.377C82.496 200.377 103.874 183.644 103.874 163.003C103.874 142.362 82.496 125.629 56.1244 125.629C29.7528 125.629 8.37439 142.362 8.37439 163.003C8.37439 183.644 29.7528 200.377 56.1244 200.377Z" fill="#28052E" stroke="black" stroke-opacity="0.05" stroke-width="66.7"/>
<path d="M56.1244 181.69C69.3102 181.69 79.9994 173.323 79.9994 163.003C79.9994 152.682 69.3102 144.316 56.1244 144.316C42.9386 144.316 32.2494 152.682 32.2494 163.003C32.2494 173.323 42.9386 181.69 56.1244 181.69Z" fill="#210024" stroke="black" stroke-opacity="0.05" stroke-width="66.7"/>
</svg>
