<svg width="18" height="18" viewBox="0 0 18 18" fill="none" xmlns="http://www.w3.org/2000/svg">
<path fill-rule="evenodd" clip-rule="evenodd" d="M2.159 3.65901C2.58095 3.23705 3.15325 3 3.74999 3H14.25C14.8467 3 15.419 3.23705 15.841 3.65901C16.2629 4.08097 16.5 4.65326 16.5 5.25V5.98836C16.5001 5.99567 16.5001 6.00296 16.5 6.01026V12.75C16.5 13.3467 16.2629 13.919 15.841 14.341C15.419 14.7629 14.8467 15 14.25 15H3.74999C3.15325 15 2.58095 14.7629 2.159 14.341C1.73704 13.919 1.49999 13.3467 1.49999 12.75V6.01025C1.49988 6.00296 1.49988 5.99567 1.49999 5.98837V5.25C1.49999 4.65326 1.73704 4.08097 2.159 3.65901ZM2.99999 7.40139V12.75C2.99999 12.9489 3.07901 13.1397 3.21966 13.2803C3.36031 13.421 3.55108 13.5 3.74999 13.5H14.25C14.4489 13.5 14.6397 13.421 14.7803 13.2803C14.921 13.1397 15 12.9489 15 12.75V7.40139L10.2487 10.5689C10.2487 10.5689 10.2486 10.569 10.2485 10.569C9.87882 10.8156 9.44438 10.9472 8.99999 10.9472C8.5556 10.9472 8.12116 10.8156 7.75146 10.569C7.75139 10.569 7.75131 10.5689 7.75124 10.5689L2.99999 7.40139ZM15 5.59861L9.41646 9.32096L9.41624 9.32111C9.29299 9.40334 9.14815 9.44722 8.99999 9.44722C8.85183 9.44722 8.70699 9.40334 8.58374 9.32111L8.58351 9.32096L2.99999 5.59861V5.25C2.99999 5.05109 3.07901 4.86032 3.21966 4.71967C3.36031 4.57902 3.55108 4.5 3.74999 4.5H14.25C14.4489 4.5 14.6397 4.57902 14.7803 4.71967C14.921 4.86032 15 5.05109 15 5.25V5.59861Z" fill="black"/>
</svg>
